<svg width="44" height="44" viewBox="0 0 44 44" fill="none" xmlns="http://www.w3.org/2000/svg">
<path fill-rule="evenodd" clip-rule="evenodd" d="M22 44C34.1502 44 44 34.1502 44 22C44 9.84973 34.1502 0 22 0C9.84973 0 0 9.84973 0 22C0 26.712 1.48139 31.0781 4.00386 34.6578L1.51558 43.9441L11.4159 41.2914C14.5561 43.0179 18.1633 44 22 44Z" fill="#FAFAFA"/>
<path fill-rule="evenodd" clip-rule="evenodd" d="M5.09094 34.4644L2.9298 42.5299L11.5454 40.2214L11.8977 40.4151C14.894 42.0625 18.336 43 22 43C33.598 43 43 33.598 43 22C43 10.402 33.598 1 22 1C10.402 1 1 10.402 1 22C1 26.4991 2.41374 30.6651 4.8213 34.0818L5.09094 34.4644ZM1.51558 43.9441L4.00386 34.6578C1.48139 31.0781 0 26.712 0 22C0 9.84973 9.84973 0 22 0C34.1502 0 44 9.84973 44 22C44 34.1502 34.1502 44 22 44C18.1633 44 14.5561 43.0179 11.4159 41.2914L1.51558 43.9441Z" fill="#BE054B"/>
<path d="M22.9658 26.793H19.6963C19.708 25.668 19.8076 24.748 19.9951 24.0332C20.1943 23.3066 20.5166 22.6445 20.9619 22.0469C21.4072 21.4492 21.999 20.7695 22.7373 20.0078C23.2764 19.457 23.7686 18.9414 24.2139 18.4609C24.6709 17.9688 25.04 17.4414 25.3213 16.8789C25.6025 16.3047 25.7432 15.6191 25.7432 14.8223C25.7432 14.0137 25.5967 13.3164 25.3037 12.7305C25.0225 12.1445 24.6006 11.6934 24.0381 11.377C23.4873 11.0605 22.8018 10.9023 21.9814 10.9023C21.3018 10.9023 20.6572 11.0254 20.0479 11.2715C19.4385 11.5176 18.9463 11.8984 18.5713 12.4141C18.1963 12.918 18.0029 13.5801 17.9912 14.4004H14.7393C14.7627 13.0762 15.0908 11.9395 15.7236 10.9902C16.3682 10.041 17.2354 9.31445 18.3252 8.81055C19.415 8.30664 20.6338 8.05469 21.9814 8.05469C23.4697 8.05469 24.7354 8.32422 25.7783 8.86328C26.833 9.40234 27.6357 10.1758 28.1865 11.1836C28.7373 12.1797 29.0127 13.3633 29.0127 14.7344C29.0127 15.7891 28.7959 16.7617 28.3623 17.6523C27.9404 18.5312 27.3955 19.3574 26.7275 20.1309C26.0596 20.9043 25.3506 21.6426 24.6006 22.3457C23.9561 22.9434 23.5225 23.6172 23.2998 24.3672C23.0771 25.1172 22.9658 25.9258 22.9658 26.793ZM19.5557 32.3652C19.5557 31.8379 19.7197 31.3926 20.0479 31.0293C20.376 30.666 20.8506 30.4844 21.4717 30.4844C22.1045 30.4844 22.585 30.666 22.9131 31.0293C23.2412 31.3926 23.4053 31.8379 23.4053 32.3652C23.4053 32.8691 23.2412 33.3027 22.9131 33.666C22.585 34.0293 22.1045 34.2109 21.4717 34.2109C20.8506 34.2109 20.376 34.0293 20.0479 33.666C19.7197 33.3027 19.5557 32.8691 19.5557 32.3652Z" fill="#BE054B"/>
</svg>
