<svg width="28" height="20" viewBox="0 0 28 20" fill="none" xmlns="http://www.w3.org/2000/svg">
<path d="M0 2H28V4H0V2Z" fill="#BE054B"/>
<path d="M0 9H28V11H0V9Z" fill="#BE054B"/>
<path d="M0 16H28V18H0V16Z" fill="#BE054B"/>
<path d="M8 3C8 4.10457 7.10457 5 6 5C4.89543 5 4 4.10457 4 3C4 1.89543 4.89543 1 6 1C7.10457 1 8 1.89543 8 3Z" fill="#FAFAFA"/>
<path fill-rule="evenodd" clip-rule="evenodd" d="M6 2C5.44772 2 5 2.44772 5 3C5 3.55228 5.44772 4 6 4C6.55228 4 7 3.55228 7 3C7 2.44772 6.55228 2 6 2ZM3 3C3 1.34315 4.34315 0 6 0C7.65685 0 9 1.34315 9 3C9 4.65685 7.65685 6 6 6C4.34315 6 3 4.65685 3 3Z" fill="#BE054B"/>
<path d="M24 10C24 11.1046 23.1046 12 22 12C20.8954 12 20 11.1046 20 10C20 8.89543 20.8954 8 22 8C23.1046 8 24 8.89543 24 10Z" fill="#FAFAFA"/>
<path fill-rule="evenodd" clip-rule="evenodd" d="M22 9C21.4477 9 21 9.44772 21 10C21 10.5523 21.4477 11 22 11C22.5523 11 23 10.5523 23 10C23 9.44772 22.5523 9 22 9ZM19 10C19 8.34315 20.3431 7 22 7C23.6569 7 25 8.34315 25 10C25 11.6569 23.6569 13 22 13C20.3431 13 19 11.6569 19 10Z" fill="#BE054B"/>
<path d="M8 17C8 18.1046 7.10457 19 6 19C4.89543 19 4 18.1046 4 17C4 15.8954 4.89543 15 6 15C7.10457 15 8 15.8954 8 17Z" fill="#FAFAFA"/>
<path fill-rule="evenodd" clip-rule="evenodd" d="M6 16C5.44772 16 5 16.4477 5 17C5 17.5523 5.44772 18 6 18C6.55228 18 7 17.5523 7 17C7 16.4477 6.55228 16 6 16ZM3 17C3 15.3431 4.34315 14 6 14C7.65685 14 9 15.3431 9 17C9 18.6569 7.65685 20 6 20C4.34315 20 3 18.6569 3 17Z" fill="#BE054B"/>
</svg>
