<svg width="24" height="32" viewBox="0 0 24 32" fill="none" xmlns="http://www.w3.org/2000/svg">
<path d="M2.37705 9.28152C1.93514 6.24479 3.98736 3.51704 7.12238 2.51767C7.67872 2.3402 8.27897 2.39072 8.80085 2.65893C9.32273 2.92714 9.72696 3.39286 9.93118 3.9612L10.9376 6.76137C11.0996 7.21185 11.1289 7.70256 11.0218 8.17052C10.9146 8.63849 10.6758 9.06236 10.3361 9.38774L7.34218 12.2483C7.19461 12.3895 7.08464 12.5683 7.02301 12.7672C6.96138 12.966 6.95018 13.1781 6.9905 13.3828L7.01827 13.5083L7.08999 13.8221C7.46232 15.3469 8.02963 16.8124 8.77666 18.1793C9.5904 19.6318 10.6003 20.9545 11.7752 22.1068L11.8677 22.1937C12.0172 22.3321 12.1985 22.4278 12.3939 22.4713C12.5893 22.5149 12.7923 22.5049 12.9829 22.4423L16.8537 21.1702C17.2936 21.0261 17.7647 21.0224 18.2066 21.1596C18.6486 21.2968 19.0411 21.5686 19.3339 21.9402L21.1664 24.26C21.9299 25.2256 21.8373 26.645 20.9604 27.4971C18.5612 29.8314 15.2619 30.3093 12.9667 28.3854C10.1534 26.0177 7.78167 23.13 5.97018 19.8666C4.14398 16.6057 2.92414 13.0145 2.37474 9.28152H2.37705ZM9.41754 13.5421L11.8978 11.1668C12.5776 10.5163 13.0556 9.66872 13.2704 8.73277C13.4852 7.79682 13.427 6.81526 13.1032 5.91408L12.0991 3.11391C11.688 1.9703 10.8745 1.03324 9.82432 0.493677C8.77411 -0.0458897 7.56622 -0.147359 6.44679 0.209946C2.55289 1.45312 -0.572878 5.09576 0.0888311 9.64603C0.551565 12.8228 1.61817 16.8637 3.97117 21.0833C5.92555 24.6021 8.48388 27.7156 11.5184 30.2683C14.9611 33.153 19.556 32.1681 22.5407 29.2665C23.3947 28.4369 23.9131 27.2985 23.99 26.0837C24.067 24.8689 23.6967 23.6693 22.9548 22.7296L21.1224 20.4074C20.5362 19.665 19.7508 19.1223 18.867 18.8488C17.9832 18.5752 17.0412 18.5834 16.1619 18.8721L12.9482 19.927C12.1184 19.0344 11.3916 18.0436 10.7826 16.9747C10.1943 15.8942 9.73582 14.7421 9.41754 13.5445V13.5421Z" fill="#07012E"/>
</svg>
