<svg width="28" height="28" viewBox="0 0 28 28" fill="none" xmlns="http://www.w3.org/2000/svg">
<path fill-rule="evenodd" clip-rule="evenodd" d="M1 14C1 21.1797 6.8203 27 14 27C21.1797 27 27 21.1797 27 14C27 6.8203 21.1797 1 14 1C6.8203 1 1 6.8203 1 14ZM14 0C6.26801 0 0 6.26801 0 14C0 21.732 6.26801 28 14 28C21.732 28 28 21.732 28 14C28 6.26801 21.732 0 14 0Z" fill="#04A54B"/>
<path d="M10.5988 18.7204L6.17357 13.6413L4.66666 15.3587L10.5988 22.1673L23.3333 7.55136L21.837 5.83398L10.5988 18.7204Z" fill="#04A54B"/>
</svg>
