<svg width="32" height="32" viewBox="0 0 32 32" fill="none" xmlns="http://www.w3.org/2000/svg">
<circle cx="16" cy="16" r="15" stroke="#07012E" stroke-width="2"/>
<path d="M21.8574 13.7146C21.8574 16.9494 19.235 19.5717 16.0002 19.5717C12.7654 19.5717 10.1431 16.9494 10.1431 13.7146C10.1431 10.4798 12.7654 7.85742 16.0002 7.85742C19.235 7.85742 21.8574 10.4798 21.8574 13.7146Z" stroke="#07012E" stroke-width="2"/>
<mask id="path-3-inside-1_607_3258" fill="white">
<path fill-rule="evenodd" clip-rule="evenodd" d="M3.74365 26.2866C6.67867 22.7929 11.08 20.5723 15.9999 20.5723C20.9199 20.5723 25.3211 22.7929 28.2562 26.2866C25.3211 29.7802 20.9199 32.0008 15.9999 32.0008C11.08 32.0008 6.67867 29.7802 3.74365 26.2866Z"/>
</mask>
<path d="M3.74365 26.2866L2.21232 25.0001L1.13155 26.2866L2.21232 27.573L3.74365 26.2866ZM28.2562 26.2866L29.7875 27.573L30.8683 26.2866L29.7875 25.0001L28.2562 26.2866ZM5.27499 27.573C7.84626 24.5124 11.6956 22.5723 15.9999 22.5723V18.5723C10.4644 18.5723 5.51109 21.0734 2.21232 25.0001L5.27499 27.573ZM15.9999 22.5723C20.3043 22.5723 24.1536 24.5124 26.7248 27.573L29.7875 25.0001C26.4887 21.0734 21.5355 18.5723 15.9999 18.5723V22.5723ZM26.7248 25.0001C24.1536 28.0607 20.3043 30.0008 15.9999 30.0008V34.0008C21.5355 34.0008 26.4887 31.4997 29.7875 27.573L26.7248 25.0001ZM15.9999 30.0008C11.6956 30.0008 7.84626 28.0607 5.27499 25.0001L2.21232 27.573C5.51109 31.4997 10.4644 34.0008 15.9999 34.0008V30.0008Z" fill="#07012E" mask="url(#path-3-inside-1_607_3258)"/>
</svg>
