<svg width="30" height="30" viewBox="0 0 30 30" fill="none" xmlns="http://www.w3.org/2000/svg">
<rect x="11.8799" y="10.5605" width="6.24004" height="7.13984" fill="#FAFAFA"/>
<path d="M4.41206 7.52398C4.3778 7.49146 4.35028 7.45252 4.33105 7.40938L4.35685 7.39258L4.41206 7.52398Z" fill="#BE054B"/>
<path d="M6.17686 16.9805L6.14746 16.9937V16.9889L6.17686 16.9805Z" fill="#BE054B"/>
<path d="M16.6761 7.92969L16.6845 7.93809C16.6467 7.96892 16.6017 7.98958 16.5537 7.99809L16.6761 7.92969Z" fill="#BE054B"/>
<path d="M16.9434 7.79356C16.9074 7.80314 16.8702 7.80759 16.833 7.80676L16.9392 7.78516L16.9434 7.79356Z" fill="#BE054B"/>
<path d="M13.4082 16.8158L13.3614 17.0444L13.2894 17.5184L13.2516 18.1028V18.725L13.209 19.2842L13.1244 19.805V19.8092L13.0044 20.2891L12.8898 20.6107L12.8262 20.6707L12.822 20.7679L12.6948 21.0223L12.4878 21.3739L12.2418 21.6787L11.9586 21.9535L11.7864 22.0795H11.7528L11.6556 22.1767L11.4564 22.2871H11.376L11.3082 22.3591L11.118 22.4395L10.7706 22.5367L10.4994 22.5835C7.96744 22.8461 5.46304 23.3279 3.01436 24.0235C1.06157 21.4284 0.0037971 18.2697 1.02035e-05 15.0221C-0.0037767 11.7744 1.04663 8.61324 2.99336 6.01367L3.14156 6.08567L3.42056 6.26567L3.42476 6.26987L3.43376 6.27827L3.44216 6.28247L3.67496 6.47986L3.92876 6.75525L4.13216 7.03845L4.31216 7.36904L4.31636 7.37324L4.45616 7.72483C4.44747 7.69042 4.44204 7.65527 4.43996 7.61984L4.55997 8.12382C4.5542 8.09599 4.55119 8.06765 4.55096 8.03923L4.57257 8.16582C4.56837 8.16162 4.56837 8.15322 4.56417 8.14902L4.63617 8.61041L4.66557 9.0592L4.65297 9.55059C4.64877 9.57579 4.64877 9.59679 4.64457 9.61059L4.58937 10.144L4.48376 10.7026L4.47476 10.7746V10.7536L4.41176 11.2936L4.39016 11.8101L4.39856 12.3219L4.43276 12.9219L4.50056 13.5867L4.59356 14.2557L4.73997 15.0207L4.89657 15.7149L5.09997 16.5152L5.56557 18.0056L5.86197 18.8102L6.47998 20.2915L6.82738 20.5585L7.61878 20.6725H7.62298L7.68298 20.6767L8.66519 20.7997L10.5282 20.9731L10.9302 20.7931L11.8488 19.4852L12.2934 18.7946L12.7296 18.0794L13.1148 17.381L13.4082 16.8158Z" fill="#BE054B"/>
<path d="M24.2593 23.0689L24.3439 23.0137L24.1621 23.1787L24.2593 23.0689Z" fill="#BE054B"/>
<path d="M26.3633 24.7886C24.9549 26.4244 23.21 27.7369 21.2478 28.6364C19.2855 29.5358 17.1522 30.001 14.9937 30.0002C12.8351 29.9994 10.7021 29.5326 8.74057 28.6317C6.779 27.7308 5.03506 26.4171 3.62793 24.7802C5.89902 24.1578 8.21744 23.7231 10.5598 23.4806L10.8598 23.4422L10.9276 23.4296L11.2534 23.3408L11.656 23.1884H11.7658L11.8498 23.1002L12.07 22.9802L12.1462 22.976L12.2524 22.8615L12.5314 22.6497C12.5666 22.6231 12.5993 22.5934 12.6292 22.5609L12.8278 22.3623L13.141 21.9897C13.1771 21.9538 13.2086 21.9134 13.2346 21.8697L13.4458 21.5397L13.645 21.1287L13.7212 21.0483V20.9511L13.8526 20.5869L13.9966 20.0325L14.0938 19.4481C14.1015 19.4086 14.1057 19.3684 14.1064 19.3281L14.149 18.7779V18.1336L14.1826 17.6338L14.2378 17.2486L14.4778 16.186L14.6218 15.6946L14.677 15.6346V15.5206L14.8504 15.004L14.914 14.9404V14.8348L15.1 14.3518L15.7198 12.9809L16.0456 12.3419L16.1302 12.2573V12.1721L16.4182 11.6603L16.507 11.5667L16.5112 11.4947L16.8712 10.8947L17.3158 10.1957L17.5738 9.81055L19.174 9.90054L20.728 10.0445L21.2614 11.1923L21.5746 11.9753L21.8332 12.6605L21.8374 12.7703L21.892 12.8255L22.0786 13.3847V13.5047L22.1296 13.5599L22.2988 14.131L22.3072 14.2666L22.354 14.3092L22.6414 15.5092L22.6456 15.6574L22.6756 15.691L22.7602 16.1482L22.7644 16.3132L22.7896 16.339L22.9096 17.3632L22.9348 17.8588V18.3004L22.9012 18.7107L22.804 19.3671L22.756 20.0403L22.7602 20.5905C22.7583 20.6106 22.7597 20.6309 22.7644 20.6505L22.8112 21.1545L22.9084 21.6621C22.9126 21.6795 22.9126 21.6921 22.9168 21.7047L23.0482 22.1283L23.2726 22.6575L23.2852 22.6827C23.2899 22.693 23.2955 22.7028 23.302 22.7121L23.3146 22.7379C23.323 22.7463 23.3272 22.7547 23.3362 22.7631L23.4928 23.0384L23.7508 23.3852L24.0682 23.7242L24.424 24.0242L24.8687 24.299L25.2497 24.4688C25.2896 24.4856 25.3307 24.4996 25.3727 24.5108L25.5629 24.5744L25.6349 24.6038H25.6799C25.9103 24.6656 26.1347 24.725 26.3633 24.7886Z" fill="#BE054B"/>
<path d="M30.0002 14.9998C30.0047 18.2591 28.9431 21.4304 26.9774 24.0302C26.6174 23.924 26.2532 23.8226 25.8848 23.7302L25.3346 23.5268L25.0346 23.3534L24.4946 22.8734L24.2828 22.5987L24.1028 22.2939L23.9504 21.9675L23.9462 21.8535L23.8862 21.7983L23.81 21.5487V21.4257L23.7716 21.3837L23.7116 21.0915L23.6606 20.6175C23.6616 20.6073 23.6602 20.597 23.6564 20.5875L23.6522 20.0583L23.6858 19.5633V19.5417L23.69 19.5249V19.4997L23.7746 18.9489L23.8298 18.3394V17.8318L23.8046 17.3194L23.7446 16.7014L23.537 15.4012L23.3762 14.6692L23.1902 13.9493L22.9802 13.2557V13.1357L22.925 13.0811L22.7132 12.4373L22.1078 10.8923L21.7442 10.0679L21.3242 9.19976L19.2158 9.00476L17.1199 8.88477L16.0999 10.4339L15.6985 11.0999L15.6097 11.1977V11.2607L14.9071 12.5903L14.8945 12.6113L14.9239 12.4673L14.9281 12.4169H14.9323L14.9791 11.9597L15.0001 11.3399C15.0043 11.3147 15.0043 11.2937 15.0085 11.2799L15.0637 10.7465L15.1609 10.2551L15.2881 9.81895C15.2839 9.82735 15.2797 9.83155 15.2797 9.83574L15.2923 9.77575H15.2965L15.3133 9.67375C15.3142 9.70542 15.3099 9.73702 15.3007 9.76735L15.4573 9.37736L15.6649 8.98796L15.8767 8.67897L16.1263 8.38678L16.3975 8.13718C16.3778 8.15345 16.3565 8.16772 16.3339 8.17978L16.4311 8.10778C16.4224 8.11861 16.4126 8.12847 16.4017 8.13718L16.6597 7.96379L16.6849 7.93799L16.6933 7.93379L16.6981 7.92959L16.7107 7.92119L16.9729 7.78559L16.9813 7.78139L17.2987 7.66139L17.6587 7.5768L17.9089 7.551C20.9805 7.34792 24.0218 6.81916 26.9816 5.97363C28.944 8.57332 30.0039 11.7426 30.0002 14.9998Z" fill="#BE054B"/>
<path d="M25.885 23.7296L25.3348 23.5262L25.0348 23.3528L24.4948 22.8728L24.283 22.5981L24.103 22.2933L23.9506 21.9669L23.9464 21.8529L23.8864 21.7977L23.8102 21.5481V21.4251L23.7718 21.3831L23.7118 21.0909L23.6608 20.6169C23.6618 20.6067 23.6604 20.5964 23.6566 20.5869L23.6524 20.0577L23.686 19.5627V19.5411L23.6902 19.5243V19.4997L23.7748 18.9489L23.83 18.3394V17.8318L23.8048 17.3194L23.7448 16.7014L23.5372 15.4012L23.3764 14.6692L23.1904 13.9493L22.9804 13.2557V13.1357L22.9252 13.0811L22.7134 12.4373L22.108 10.8923L21.7444 10.0679L21.3244 9.19976L19.2159 9.00476L17.1201 8.88477L16.1001 10.4339L15.6987 11.0999L15.6099 11.1977V11.2607L14.9073 12.5903L14.8947 12.6113V12.6197L14.8269 12.9797L14.6997 13.5197L14.5389 14.0704L14.3103 14.7418L14.0775 15.3556L13.7853 16.033L13.4763 16.6846L13.4085 16.816L13.3617 17.0446L13.2897 17.5186L13.2519 18.103V18.7251L13.2093 19.2843L13.1247 19.8051V19.8093L13.0047 20.2893L12.8901 20.6109L12.8265 20.6709L12.8223 20.7681L12.6951 21.0225L12.4881 21.3741L12.2421 21.6789L11.9589 21.9537L11.7867 22.0797H11.7531L11.6559 22.1769L11.4567 22.2873H11.3763L11.3085 22.3593L11.1183 22.4397L10.7709 22.5369L10.4997 22.5837C7.96773 22.8463 5.46333 23.3281 3.01465 24.0236C3.21385 24.2816 3.41665 24.536 3.62845 24.7814C5.89949 24.1584 8.21791 23.7231 10.5603 23.48L10.8603 23.4416L10.9281 23.429L11.2539 23.3402L11.6565 23.1878H11.7663L11.8503 23.0996L12.0705 22.9796L12.1467 22.9754L12.2529 22.8608L12.5319 22.6491C12.5671 22.6225 12.5999 22.5928 12.6297 22.5603L12.8283 22.3617L13.1415 21.9891C13.1776 21.9532 13.2091 21.9128 13.2351 21.8691L13.4463 21.5391L13.6455 21.1281L13.7217 21.0477V20.9505L13.8531 20.5863L13.9971 20.0319L14.0943 19.4475C14.102 19.408 14.1062 19.3678 14.1069 19.3275L14.1495 18.7773V18.133L14.1831 17.6332L14.2383 17.248L14.4783 16.1854L14.6223 15.694L14.6775 15.634V15.52L14.8509 15.0034L14.9145 14.9398V14.8342L15.1005 14.3512L15.7203 12.9803L16.0461 12.3413L16.1307 12.2567V12.1715L16.4187 11.6597L16.5075 11.5661L16.5117 11.4941L16.8717 10.8941L17.3163 10.1951L17.5743 9.80994L19.1745 9.89994L20.7285 10.0439L21.2619 11.1917L21.5752 11.9747L21.8338 12.6599L21.838 12.7697L21.8926 12.8249L22.0792 13.3841V13.5041L22.1302 13.5593L22.2994 14.1304L22.3078 14.266L22.3546 14.3086L22.642 15.5086L22.6462 15.6568L22.6762 15.6904L22.7608 16.1476L22.765 16.3126L22.7902 16.3384L22.9102 17.3626L22.9354 17.8582V18.2998L22.9018 18.7101L22.8046 19.3665L22.7566 20.0397L22.7608 20.5899C22.7588 20.61 22.7602 20.6303 22.765 20.6499L22.8118 21.1539L22.909 21.6615C22.9132 21.6789 22.9132 21.6915 22.9174 21.7041L23.0488 22.1277L23.2732 22.6569L23.2858 22.6821C23.2904 22.6924 23.2961 22.7022 23.3026 22.7115L23.3152 22.7373C23.3236 22.7456 23.3278 22.7541 23.3368 22.7625L23.4934 23.0378L23.7514 23.3846L24.0688 23.7236L24.4246 24.0236L24.8692 24.2984L25.2502 24.4682C25.2902 24.485 25.3313 24.499 25.3732 24.5102L25.5634 24.5738L25.6354 24.6032H25.6804C25.909 24.6632 26.1334 24.7232 26.362 24.7832C26.5738 24.5378 26.7766 24.2834 26.9758 24.0254C26.6176 23.924 26.2534 23.8226 25.885 23.7296ZM24.1624 23.1794L24.2596 23.069L24.3442 23.0138L24.1624 23.1794Z" fill="#FAFAFA"/>
<path d="M26.3631 5.21191C23.5818 5.98245 20.7289 6.46616 17.8491 6.65548L17.5401 6.68548V6.69808L17.4681 6.71068L17.4639 6.69808L17.1249 6.78028C17.0972 6.7834 17.0701 6.79047 17.0445 6.80128L16.6761 6.94107L16.2699 7.14027L16.2399 7.16127C16.1961 7.18186 16.1556 7.20897 16.1199 7.24167L15.9465 7.36167C15.9041 7.38187 15.8653 7.40904 15.8319 7.44206L15.5481 7.69166C15.5041 7.72341 15.4656 7.76212 15.4341 7.80626L15.2055 8.07265C15.17 8.10796 15.1401 8.14842 15.1167 8.19265L14.9091 8.49264L14.8749 8.56884L14.8665 8.56464L14.6721 8.92823L14.6595 8.98343L14.6463 8.97923C14.6329 9.00271 14.6244 9.02861 14.6211 9.05543L14.4729 9.41122C14.4542 9.45199 14.4399 9.49463 14.4303 9.53842L14.3037 9.96981L14.3121 9.97401L14.2953 10.0544H14.2827L14.1807 10.5752L14.1723 10.6388L14.1681 10.6346L14.1081 11.2064L14.0811 11.8802L14.0385 12.3074H14.0343L13.9497 12.7729L13.8441 13.2391L13.8399 13.2643H13.8357L13.6743 13.8103L13.4757 14.4031H13.4799L12.9759 15.6349L12.6669 16.2913L12.3195 16.9602L11.9469 17.6334L11.5407 18.3066L11.0961 18.9966L10.6161 19.6866L10.6329 19.6992L10.6287 19.7076L10.6119 19.695L10.3491 20.055L9.75625 20.004L7.79184 19.7838H7.74564L7.20563 19.7034L6.71423 18.5184L6.42623 17.7264H6.41963L6.17963 16.98L6.15023 16.9926V16.9884L6.17963 16.98L5.96483 16.2601L5.77463 15.5317L5.61803 14.8201L5.49082 14.1343L5.46502 14.1385V14.1295H5.48662L5.39962 13.5601L5.33182 12.8953L5.29762 12.3152L5.28922 11.8118L5.31022 11.3504L5.36542 10.8932H5.36362L5.36782 10.8758L5.47402 10.313L5.48242 10.2494L5.48662 10.2536L5.55023 9.67341L5.56703 9.07343C5.56787 9.03338 5.56646 8.99332 5.56283 8.95343L5.53703 8.58504C5.53883 8.53828 5.53602 8.49145 5.52863 8.44524L5.45962 8.01025C5.45616 7.97133 5.44769 7.93301 5.43442 7.89625L5.33302 7.53626H5.32882L5.32042 7.48106L5.31562 7.48526L5.15902 7.06527L5.14222 7.06947L5.10982 6.96027L4.91962 6.60928L4.91122 6.59188L4.88602 6.55408L4.63642 6.19829C4.61562 6.17266 4.59296 6.14859 4.56862 6.12629L4.36942 5.9061C4.33767 5.86213 4.29896 5.82362 4.25482 5.7921L4.02562 5.59711C3.98865 5.56361 3.94845 5.53387 3.90562 5.50831L3.58401 5.30071L3.56241 5.29651C3.36381 5.52931 3.17301 5.7663 2.99121 6.0123L3.13941 6.08429L3.41841 6.26429L3.42261 6.26849L3.43161 6.27689L3.44001 6.28109L3.67461 6.48029L3.92842 6.75568L4.13182 7.03887L4.31182 7.36947L4.31602 7.37366L4.45582 7.72526C4.44712 7.69085 4.4417 7.65569 4.43962 7.62026L4.55962 8.12425C4.55385 8.09641 4.55084 8.06808 4.55062 8.03965L4.57222 8.16625C4.56802 8.16205 4.56802 8.15365 4.56382 8.14945L4.63582 8.61084L4.66522 9.05963L4.65262 9.55102C4.64842 9.57621 4.64842 9.59721 4.64422 9.61101L4.58902 10.1444L4.48342 10.703L4.47442 10.775V10.754L4.41142 11.294L4.38982 11.8106L4.39822 12.3224L4.43242 12.9223L4.50022 13.5871L4.59322 14.2561L4.73962 15.0211L4.89622 15.7153L5.09962 16.5157L5.56523 18.006L5.86163 18.8106L6.47963 20.292L6.82703 20.559L7.61844 20.673H7.62264L7.68264 20.6772L8.66484 20.8002L10.5279 20.9736L10.9299 20.7936L11.8485 19.4856L12.2931 18.795L12.7293 18.0798L13.1145 17.3814L13.4067 16.8181L13.4619 16.5475L13.6197 15.9145L14.0133 14.6785V14.5681L14.0811 14.5003L14.2845 13.9669L14.5935 13.2559L14.8935 12.6205V12.6121L14.9229 12.4681L14.9271 12.4178H14.9313L14.9781 11.9606L14.9997 11.3402C15.0039 11.315 15.0039 11.294 15.0081 11.2802L15.0633 10.7468L15.1605 10.2554L15.2877 9.81921C15.2835 9.82761 15.2793 9.83181 15.2793 9.83601L15.2919 9.77601H15.2961L15.3129 9.67401C15.3137 9.70568 15.3095 9.73729 15.3003 9.76761L15.4569 9.37762L15.6645 8.98823L15.8763 8.67923L16.1259 8.38704L16.3971 8.13745C16.3773 8.15371 16.356 8.16798 16.3335 8.18005L16.4307 8.10805C16.422 8.11887 16.4121 8.12873 16.4013 8.13745L16.6593 7.96405L16.6845 7.93825C16.6467 7.96909 16.6017 7.98974 16.5537 7.99825L16.6737 7.93045L16.6821 7.93885L16.6905 7.93465L16.6953 7.93045L16.7079 7.92205L16.9701 7.78646L16.9785 7.78226L17.2959 7.66226L17.6559 7.57766L17.9061 7.55186C20.9785 7.34875 24.0206 6.8198 26.9811 5.9739C26.7819 5.7117 26.5749 5.46031 26.3631 5.21191ZM4.33042 7.40906L4.35622 7.39226L4.41142 7.52366C4.37716 7.49115 4.34964 7.45221 4.33042 7.40906ZM16.8327 7.80745L16.9389 7.78586L16.9431 7.79426C16.9071 7.80384 16.8699 7.80828 16.8327 7.80745Z" fill="#FAFAFA"/>
<path d="M26.3632 5.21213C23.5819 5.98267 20.729 6.46638 17.8492 6.6557L17.5402 6.6857V6.6983L17.4682 6.71089L17.464 6.6983L17.125 6.78049C17.0973 6.78361 17.0702 6.79068 17.0446 6.80149L16.6762 6.94129L16.27 7.14049L16.24 7.16148C16.1961 7.18208 16.1557 7.20918 16.12 7.24188L15.9466 7.36188C15.9041 7.38208 15.8654 7.40926 15.832 7.44228L15.5482 7.69187C15.5042 7.72363 15.4657 7.76233 15.4342 7.80647L15.2056 8.07286C15.1701 8.10818 15.1402 8.14863 15.1168 8.19286L14.9092 8.49285L14.875 8.56905L14.8666 8.56485L14.6722 8.92844L14.6596 8.98364L14.6464 8.97944C14.633 9.00293 14.6244 9.02883 14.6212 9.05564L14.473 9.41143C14.4543 9.45221 14.44 9.49484 14.4304 9.53863L14.3038 9.97002L14.3122 9.97422L14.2954 10.0546H14.2828L14.1808 10.5754L14.1724 10.639L14.1682 10.6348L14.1082 11.2066L14.0812 11.8804L14.0386 12.3076H14.0344L13.9498 12.7732L13.8442 13.2393L13.84 13.2645H13.8358L13.6744 13.8105L13.4758 14.4033H13.48L12.976 15.6351L12.667 16.2915L12.3195 16.9605L11.9469 17.6336L11.5407 18.3068L11.0961 18.9968L10.6161 19.6868L10.6329 19.6994L10.6287 19.7078L10.6119 19.6952L10.3491 20.0552L9.75633 20.0042L7.79192 19.784H7.74572L7.20572 19.7036L6.71432 18.5186L6.42632 17.7266H6.41972L6.17971 16.9803L5.96491 16.2603L5.77471 15.5319L5.61811 14.8203L5.49091 14.1345L5.46511 14.1387V14.1297H5.48671L5.39971 13.5603L5.33191 12.8956L5.29771 12.3154L5.28931 11.812L5.31031 11.3506L5.36551 10.8934H5.36371L5.36791 10.876L5.47411 10.3132L5.48251 10.2496L5.48671 10.2538L5.55031 9.67363L5.56711 9.07364C5.56795 9.0336 5.56655 8.99353 5.56291 8.95364L5.53711 8.58525C5.53892 8.53849 5.53611 8.49166 5.52871 8.44546L5.45971 8.01047C5.45624 7.97154 5.44777 7.93323 5.43451 7.89647L5.33311 7.53648H5.32891L5.32051 7.48128L5.31571 7.48548L5.15911 7.06549L5.14231 7.06969L5.10991 6.96049L4.91971 6.6095L4.91131 6.5921L4.88611 6.5543L4.63651 6.19851C4.61571 6.17287 4.59304 6.14881 4.56871 6.12651L4.3695 5.90631C4.33775 5.86234 4.29904 5.82384 4.2549 5.79232L4.0257 5.59732C3.98873 5.56383 3.94854 5.53408 3.9057 5.50852L3.5841 5.30093L3.5625 5.29673C4.96401 3.64393 6.70713 2.31457 8.67181 1.40018C10.6365 0.485804 12.776 0.00814384 14.9431 0.000103229C17.1101 -0.00793738 19.2531 0.453833 21.2245 1.35361C23.1959 2.25338 24.9489 3.56978 26.3626 5.21213H26.3632Z" fill="#BE054B"/>
</svg>
