<svg xmlns="http://www.w3.org/2000/svg" fill="none" viewBox="0 0 88 80">
  <rect width="10" height="14" x="39" y="61" fill="#07012E" stroke="#07012E" stroke-width="2" rx="3"/>
  <path fill="#07012E" d="m31.852 52.374.536-.845-.536.845Zm24.296 0 .535.844-.535-.844ZM68 29c0 9.05-5.005 17.847-12.388 22.53l1.071 1.688C64.633 48.176 70 38.747 70 29h-2ZM44 5c13.255 0 24 10.745 24 24h2C70 14.64 58.36 3 44 3v2ZM20 29C20 15.745 30.745 5 44 5V3C29.64 3 18 14.64 18 29h2Zm12.388 22.53C25.005 46.846 20 38.05 20 29h-2c0 9.747 5.366 19.176 13.317 24.218l1.07-1.689ZM35 67V56.06h-2V67h2Zm15 3H38v2h12v-2Zm3-13.94V67h2V56.06h-2ZM33 67a5 5 0 0 0 5 5v-2a3 3 0 0 1-3-3h-2Zm-1.683-13.782C32.353 53.876 33 54.941 33 56.06h2c0-1.91-1.093-3.567-2.612-4.53l-1.071 1.688ZM50 72a5 5 0 0 0 5-5h-2a3 3 0 0 1-3 3v2Zm5.612-20.47c-1.52.963-2.612 2.62-2.612 4.53h2c0-1.119.647-2.184 1.683-2.842l-1.07-1.689ZM35 65h18v2H35zm0-4h18v2H35z"/>
  <path fill="#BE054B" d="M47 60v1h-2v-1h2Zm-1-8h-1a1 1 0 0 1 .293-.707L46 52Zm3.293-4.707a1 1 0 0 1 1.414 1.414l-1.414-1.414ZM45 60v-8h2v8h-2Zm.293-8.707 4-4 1.414 1.414-4 4-1.414-1.414ZM41 60v1h2v-1h-2Zm1-8h1a1 1 0 0 0-.293-.707L42 52Zm-3.293-4.707a1 1 0 0 0-1.414 1.414l1.414-1.414ZM43 60v-8h-2v8h2Zm-.293-8.707-4-4-1.414 1.414 4 4 1.414-1.414Z"/>
  <path stroke="#BE054B" stroke-linecap="round" stroke-width="2" d="M57.883 14.012c-7.51-7.51-19.93-7.266-27.74.544-7.811 7.81-8.055 20.23-.545 27.74"/>
  <rect width="8" height="2" x="73" y="27" fill="#BE054B" rx="1"/>
  <rect width="8" height="2" x="68.865" y="12.567" fill="#BE054B" rx="1" transform="rotate(-30 68.865 12.567)"/>
  <rect width="8" height="2" x="69.365" y="41.567" fill="#BE054B" rx="1" transform="rotate(30 69.365 41.567)"/>
  <rect width="8" height="2" x="7" y="26" fill="#BE054B" rx="1"/>
  <rect width="8" height="2" x="11.207" y="44.701" fill="#BE054B" rx="1" transform="rotate(-30 11.207 44.701)"/>
  <rect width="8" height="2" x="12.707" y="7.701" fill="#BE054B" rx="1" transform="rotate(30 12.707 7.7)"/>
</svg>
