<svg xmlns="http://www.w3.org/2000/svg" xmlns:xlink="http://www.w3.org/1999/xlink" fill="none" viewBox="0 0 88 80">
  <defs>
    <path id="a" fill="#07012E" d="M5.929 23.926A2 2 0 0 1 7.927 22h8.146a2 2 0 0 1 1.998 1.926l1.852 50A2 2 0 0 1 17.925 76H6.075a2 2 0 0 1-1.998-2.074l1.852-50Z"/>
  </defs>
  <circle cx="12" cy="68" r="4" fill="#FAFAFA"/>
  <path fill="#FAFAFA" d="M79 43h6v3a1 1 0 0 1-1 1h-4a1 1 0 0 1-1-1v-3Z"/>
  <rect width="71" height="30" x="12" y="45" stroke="#07012E" stroke-width="2" rx="3"/>
  <mask id="b" width="16" height="54" x="4" y="22" maskUnits="userSpaceOnUse" style="mask-type:alpha">
    <use xlink:href="#a"/>
  </mask>
  <g mask="url(#b)">
    <use xlink:href="#a"/>
    <path fill="#FAFAFA" d="M0 17.846h27v10.385H0z"/>
  </g>
  <path stroke="#07012E" stroke-width="2" d="M7.927 23h8.146a1 1 0 0 1 .999.963l1.852 50a1 1 0 0 1-1 1.037H6.076a1 1 0 0 1-.999-1.037l1.852-50a1 1 0 0 1 1-.963Z"/>
  <mask id="c" fill="#fff">
    <path fill-rule="evenodd" d="M58.48 4.384A.5.5 0 0 1 58.966 4h6.067a.5.5 0 0 1 .487.384l1.351 5.676a.085.085 0 0 0 .128.053l4.968-3.058a.5.5 0 0 1 .616.072l4.29 4.29a.5.5 0 0 1 .072.616l-3.057 4.968a.085.085 0 0 0 .053.127l5.675 1.352a.5.5 0 0 1 .384.486v6.067a.5.5 0 0 1-.384.487l-5.674 1.35a.087.087 0 0 0-.054.13l3.056 4.967a.5.5 0 0 1-.072.616l-4.29 4.29a.5.5 0 0 1-.616.072L67 33.888a.085.085 0 0 0-.128.053l-1.351 5.675a.5.5 0 0 1-.487.384h-6.067a.5.5 0 0 1-.486-.384l-1.352-5.676a.084.084 0 0 0-.126-.052l-4.97 3.058a.5.5 0 0 1-.615-.072l-4.29-4.29a.5.5 0 0 1-.072-.616l3.057-4.97a.086.086 0 0 0-.053-.128l-5.675-1.35a.5.5 0 0 1-.384-.487v-6.067a.5.5 0 0 1 .384-.486l5.677-1.352a.083.083 0 0 0 .051-.124l-3.058-4.97a.5.5 0 0 1 .072-.616l4.29-4.29a.5.5 0 0 1 .616-.073l4.969 3.058a.085.085 0 0 0 .127-.053l1.352-5.676ZM62 27.143a5.143 5.143 0 1 0 0-10.286 5.143 5.143 0 0 0 0 10.286Z" clip-rule="evenodd"/>
  </mask>
  <path fill="#FAFAFA" fill-rule="evenodd" d="M58.48 4.384A.5.5 0 0 1 58.966 4h6.067a.5.5 0 0 1 .487.384l1.351 5.676a.085.085 0 0 0 .128.053l4.968-3.058a.5.5 0 0 1 .616.072l4.29 4.29a.5.5 0 0 1 .072.616l-3.057 4.968a.085.085 0 0 0 .053.127l5.675 1.352a.5.5 0 0 1 .384.486v6.067a.5.5 0 0 1-.384.487l-5.674 1.35a.087.087 0 0 0-.054.13l3.056 4.967a.5.5 0 0 1-.072.616l-4.29 4.29a.5.5 0 0 1-.616.072L67 33.888a.085.085 0 0 0-.128.053l-1.351 5.675a.5.5 0 0 1-.487.384h-6.067a.5.5 0 0 1-.486-.384l-1.352-5.676a.084.084 0 0 0-.126-.052l-4.97 3.058a.5.5 0 0 1-.615-.072l-4.29-4.29a.5.5 0 0 1-.072-.616l3.057-4.97a.086.086 0 0 0-.053-.128l-5.675-1.35a.5.5 0 0 1-.384-.487v-6.067a.5.5 0 0 1 .384-.486l5.677-1.352a.083.083 0 0 0 .051-.124l-3.058-4.97a.5.5 0 0 1 .072-.616l4.29-4.29a.5.5 0 0 1 .616-.073l4.969 3.058a.085.085 0 0 0 .127-.053l1.352-5.676ZM62 27.143a5.143 5.143 0 1 0 0-10.286 5.143 5.143 0 0 0 0 10.286Z" clip-rule="evenodd"/>
  <path fill="#BE054B" d="m57.128 10.06 1.946.464-1.946-.464Zm-.127.053-1.048 1.703L57 10.113Zm-4.969-3.058 1.048-1.703-1.048 1.703Zm-4.978 4.978-1.703 1.048 1.703-1.048Zm.072-.615-1.414-1.415 1.414 1.415Zm2.987 5.586 1.703-1.048-1.703 1.048Zm-.052.124.464 1.945-.464-1.945Zm-5.677 8.392-.463 1.945.463-1.945Zm5.675 1.35-.463 1.947.463-1.946Zm.053.129L48.41 25.95l1.703 1.048Zm-2.985 5.585 1.414-1.415-1.414 1.415Zm-.072-.616 1.703 1.048-1.703-1.048Zm4.978 4.978-1.049-1.703 1.049 1.703Zm-.616-.072 1.414-1.415-1.414 1.415Zm5.585-2.986-1.048-1.704 1.048 1.704Zm.126.052 1.946-.463-1.946.463Zm1.352 5.676 1.945-.463-1.945.463Zm7.04 0-1.946-.463 1.946.463Zm1.35-5.675-1.945-.463 1.946.463Zm.129-.053-1.048 1.704 1.048-1.704Zm5.583 2.985 1.414 1.414-1.414-1.414Zm-.616.072-1.048 1.703 1.048-1.703Zm4.978-4.978-1.703 1.048 1.703-1.048Zm-.072.616 1.414 1.414-1.414-1.414ZM73.888 27l-1.703 1.049L73.888 27Zm.054-.13-.463-1.945.463 1.946Zm5.674-1.35.463 1.945-.463-1.945Zm0-7.04.463-1.946-.463 1.946Zm-5.676-1.352.463-1.945-.463 1.945Zm-.052-.127 1.703 1.049L73.888 17Zm2.985-5.584-1.414 1.415 1.414-1.415Zm.072.616-1.703-1.048 1.703 1.048Zm-4.978-4.978-1.048-1.703 1.048 1.703Zm.616.072-1.415 1.415 1.415-1.415Zm-5.584 2.986 1.048 1.703-1.048-1.704Zm-.128-.053 1.946-.464-1.946.464ZM58.48 4.384l-1.946-.463 1.946.463Zm7.04 0-1.946.463 1.946-.463ZM65.033 2h-6.067v4h6.067V2Zm3.784 7.596-1.352-5.675-3.89.926 1.35 5.676 3.892-.927Zm2.102-4.244L65.95 8.409l2.097 3.407 4.968-3.058-2.096-3.406Zm7.368 4.651-4.29-4.29-2.829 2.829 4.29 4.29 2.829-2.829Zm-2.696 8.047 3.057-4.969-3.406-2.096-3.058 4.968 3.407 2.097Zm4.488-1.516-5.675-1.351-.927 3.891 5.676 1.351.926-3.891Zm1.921 8.5v-6.068h-4v6.067h4Zm-7.595 3.782 5.674-1.35-.926-3.892-5.675 1.351.927 3.891Zm4.243 2.103-3.057-4.967-3.406 2.096 3.056 4.967 3.407-2.096Zm-4.652 7.368 4.29-4.29-2.828-2.829-4.29 4.29 2.828 2.829Zm-8.045-2.695 4.967 3.056 2.096-3.406-4.967-3.057-2.096 3.407Zm1.514 4.487 1.351-5.675-3.89-.926-1.352 5.675 3.891.926ZM58.966 42h6.067v-4h-6.067v4Zm-3.784-7.597 1.352 5.676 3.891-.926-1.351-5.676-3.892.926Zm-2.101 4.246 4.97-3.058-2.097-3.407-4.97 3.059 2.097 3.406Zm-7.368-4.651 4.29 4.29 2.828-2.828-4.29-4.29-2.828 2.828Zm2.696-8.047-3.058 4.969 3.407 2.096 3.058-4.969-3.407-2.096Zm-4.488 1.514 5.675 1.352.927-3.892-5.676-1.35-.926 3.89ZM42 18.966v6.067h4v-6.067h-4Zm7.598-3.784-5.677 1.352.926 3.891 5.678-1.352-.927-3.89Zm-4.247-2.1 3.058 4.97 3.407-2.096-3.059-4.971-3.406 2.096Zm4.651-7.369-4.29 4.29 2.828 2.829 4.29-4.29-2.828-2.829ZM58.05 8.41l-4.97-3.058-2.096 3.406 4.969 3.058 2.096-3.406Zm-1.515-4.49-1.351 5.677 3.89.927 1.352-5.677-3.891-.926ZM65.144 22A3.143 3.143 0 0 1 62 25.143v4A7.143 7.143 0 0 0 69.143 22h-4ZM62 18.857A3.143 3.143 0 0 1 65.143 22h4A7.143 7.143 0 0 0 62 14.857v4ZM58.858 22A3.143 3.143 0 0 1 62 18.857v-4A7.143 7.143 0 0 0 54.858 22h4ZM62 25.143A3.143 3.143 0 0 1 58.858 22h-4A7.143 7.143 0 0 0 62 29.143v-4Zm-4.156-13.177a2.085 2.085 0 0 0 1.23-1.442l-3.891-.927a1.915 1.915 0 0 1 1.129-1.325l1.532 3.694Zm-1.891-.15c.57.351 1.273.407 1.891.15l-1.532-3.694a1.915 1.915 0 0 1 1.737.138l-2.096 3.406ZM52.83 8.542a1.5 1.5 0 0 1-1.847.216l2.096-3.406a2.5 2.5 0 0 0-3.078.361l2.829 2.829Zm-4.074 2.443a1.5 1.5 0 0 1-.217 1.847l-2.828-2.829a2.5 2.5 0 0 0-.361 3.078l3.406-2.096Zm3.21 6.86a2.083 2.083 0 0 0-.15-1.89l-3.408 2.097a1.917 1.917 0 0 1-.138-1.74l3.695 1.533Zm-1.442 1.229a2.083 2.083 0 0 0 1.441-1.229l-3.695-1.532a1.917 1.917 0 0 1 1.327-1.13l.927 3.89ZM46 18.965a1.5 1.5 0 0 1-1.153 1.46l-.926-3.892A2.5 2.5 0 0 0 42 18.966h4Zm-1.153 4.608A1.5 1.5 0 0 1 46 25.034h-4a2.5 2.5 0 0 0 1.92 2.431l.927-3.89Zm7.119 2.581a2.085 2.085 0 0 0-1.443-1.23l-.927 3.892a1.914 1.914 0 0 1-1.325-1.13l3.695-1.532Zm-.15 1.892a2.085 2.085 0 0 0 .15-1.892l-3.695 1.532a1.914 1.914 0 0 1 .138-1.736l3.407 2.096ZM48.54 31.17a1.5 1.5 0 0 1 .217 1.847L45.35 30.92a2.5 2.5 0 0 0 .362 3.078l2.828-2.829Zm2.444 4.074a1.5 1.5 0 0 1 1.846.216l-2.828 2.829a2.5 2.5 0 0 0 3.078.361l-2.097-3.406Zm6.86-3.209a2.084 2.084 0 0 0-1.89.15l2.096 3.407a1.916 1.916 0 0 1-1.739.138l1.533-3.695Zm1.229 1.443a2.084 2.084 0 0 0-1.23-1.443l-1.532 3.695a1.916 1.916 0 0 1-1.13-1.326l3.892-.926ZM58.966 38a1.5 1.5 0 0 1 1.46 1.153l-3.892.926A2.5 2.5 0 0 0 58.966 42v-4Zm4.608 1.153A1.5 1.5 0 0 1 65.034 38v4a2.5 2.5 0 0 0 2.431-1.92l-3.89-.927Zm2.581-7.118a2.086 2.086 0 0 0-1.23 1.443l3.891.926a1.914 1.914 0 0 1-1.129 1.325l-1.532-3.694Zm1.892.15a2.085 2.085 0 0 0-1.892-.15l1.532 3.695a1.914 1.914 0 0 1-1.736-.138l2.096-3.407Zm3.12 3.274a1.5 1.5 0 0 1 1.847-.217l-2.096 3.406a2.5 2.5 0 0 0 3.078-.361l-2.828-2.828Zm4.074-2.444a1.5 1.5 0 0 1 .217-1.847l2.828 2.829a2.5 2.5 0 0 0 .362-3.078l-3.407 2.096Zm-3.207-6.86a2.087 2.087 0 0 0 .15 1.893l3.407-2.096c.324.526.372 1.172.138 1.736l-3.695-1.532Zm1.444-1.23a2.087 2.087 0 0 0-1.444 1.23l3.695 1.533a1.913 1.913 0 0 1-1.324 1.128l-.927-3.89Zm4.522.108a1.5 1.5 0 0 1 1.153-1.459l.926 3.891A2.5 2.5 0 0 0 82 25.033h-4Zm1.153-4.608A1.5 1.5 0 0 1 78 18.966h4a2.5 2.5 0 0 0-1.92-2.432l-.927 3.891Zm-7.119-2.58a2.085 2.085 0 0 0 1.443 1.229l.926-3.891c.598.142 1.09.562 1.326 1.13l-3.695 1.532Zm.15-1.892a2.085 2.085 0 0 0-.15 1.892l3.695-1.533a1.915 1.915 0 0 1-.138 1.738l-3.407-2.097Zm3.275-3.121a1.5 1.5 0 0 1-.217-1.847l3.406 2.096a2.5 2.5 0 0 0-.361-3.078l-2.828 2.829Zm-2.444-4.074a1.5 1.5 0 0 1-1.847-.216l2.829-2.829a2.5 2.5 0 0 0-3.078-.361l2.096 3.406Zm-6.86 3.208a2.09 2.09 0 0 0 1.892-.15L65.95 8.409a1.915 1.915 0 0 1 1.737-.138l-1.532 3.695Zm-1.23-1.443c.155.65.613 1.187 1.23 1.443l1.532-3.695c.567.235.987.728 1.13 1.325l-3.892.927ZM58.966 2a2.5 2.5 0 0 0-2.432 1.921l3.891.926A1.5 1.5 0 0 1 58.966 6V2Zm6.067 4a1.5 1.5 0 0 1-1.459-1.153l3.891-.926A2.5 2.5 0 0 0 65.033 2v4Z" mask="url(#c)"/>
  <rect width="10" height="10" x="26" y="54" stroke="#07012E" stroke-width="2" rx="1"/>
  <rect width="10" height="10" x="46" y="54" stroke="#07012E" stroke-width="2" rx="1"/>
  <rect width="10" height="10" x="66" y="54" stroke="#07012E" stroke-width="2" rx="1"/>
</svg>
