<svg width="8" height="8" viewBox="0 0 8 8" fill="none" xmlns="http://www.w3.org/2000/svg">
<path d="M7.86654 5.22547L5.60102 4L7.86654 2.77453C7.9942 2.70547 8.03787 2.55266 7.9642 2.43297L7.43053 1.56687C7.35687 1.44734 7.1937 1.40625 7.06603 1.47531L4.80051 2.70078V0.25C4.80051 0.111875 4.68101 0 4.53367 0H3.46633C3.31899 0 3.19949 0.111875 3.19949 0.25V2.70094L0.933971 1.47547C0.806303 1.40641 0.643135 1.4475 0.569467 1.56703L0.0357956 2.43297C-0.0378718 2.5525 0.00579531 2.70547 0.133463 2.77453L2.39898 4L0.133463 5.22547C0.00579531 5.29453 -0.0378718 5.4475 0.0357956 5.56703L0.569467 6.43313C0.643135 6.55266 0.806303 6.59359 0.933971 6.52469L3.19949 5.29922V7.75C3.19949 7.88812 3.31899 8 3.46633 8H4.53367C4.68101 8 4.80051 7.88812 4.80051 7.75V5.29906L7.06603 6.52453C7.1937 6.59359 7.35687 6.55266 7.43053 6.43297L7.9642 5.56687C8.03787 5.44734 7.9942 5.29453 7.86654 5.22547Z" fill="#BE054B"/>
</svg>
