<svg width="68" height="48" viewBox="0 0 68 48" fill="none" xmlns="http://www.w3.org/2000/svg">
<path d="M10 20H28V28H10V20Z" fill="#07012E"/>
<path fill-rule="evenodd" clip-rule="evenodd" d="M52.4643 30.6195C53.3086 28.9055 53.8351 27.0068 53.9672 25.0004H48.5C48.2239 25.0004 48 24.7765 48 24.5004V23.5004C48 23.2243 48.2239 23.0004 48.5 23.0004H51H53.9672C53.8351 20.994 53.3085 19.0953 52.4643 17.3812L47.7271 20.1162C47.4879 20.2543 47.1822 20.1724 47.0441 19.9332L46.5441 19.0672C46.406 18.8281 46.4879 18.5223 46.7271 18.3842L48.8922 17.1342L51.4627 15.6501C48.9445 11.8991 44.7778 9.34768 40 9.0332V14.5004C40 14.7765 39.7761 15.0004 39.5 15.0004H38.5C38.2239 15.0004 38 14.7765 38 14.5004V12.0004V9.0332C35.9936 9.16526 34.095 9.69181 32.381 10.536L35.1161 15.2733C35.2542 15.5125 35.1722 15.8182 34.9331 15.9563L34.067 16.4563C33.8279 16.5944 33.5221 16.5125 33.384 16.2733L32.134 14.1082L30.6499 11.5376C26.6393 14.23 24 18.807 24 24.0004C24 31.9486 30.182 38.453 38 38.9676V36.0004V33.5004C38 33.2243 38.2239 33.0004 38.5 33.0004H39.5C39.7761 33.0004 40 33.2243 40 33.5004V38.9676C42.0063 38.8355 43.9049 38.309 45.619 37.4648L44.134 34.8928L42.884 32.7278C42.746 32.4886 42.8279 32.1828 43.067 32.0448L43.9331 31.5448C44.1722 31.4067 44.478 31.4886 44.6161 31.7278L47.3501 36.4632C48.9738 35.3732 50.3727 33.9743 51.4627 32.3507L48.8923 30.8666L46.7272 29.6166C46.4881 29.4785 46.4061 29.1727 46.5442 28.9336L47.0442 28.0676C47.1823 27.8284 47.4881 27.7465 47.7272 27.8846L49.8923 29.1346L52.4643 30.6195ZM52.1328 31.2538L51.862 31.7228C51.955 31.5683 52.0453 31.4119 52.1328 31.2538ZM52.1352 16.7514C52.0462 16.5903 51.9542 16.431 51.8594 16.2736L52.1352 16.7514ZM46.7177 36.8653L46.2583 37.1305C46.4131 37.0448 46.5663 36.9563 46.7177 36.8653ZM31.7567 10.862C31.5918 10.9531 31.4287 11.0473 31.2676 11.1444L31.7567 10.862ZM43 24.0004C43 26.2095 41.2091 28.0004 39 28.0004C36.7909 28.0004 35 26.2095 35 24.0004C35 21.7913 36.7909 20.0004 39 20.0004C41.2091 20.0004 43 21.7913 43 24.0004Z" fill="#BE054B"/>
<path d="M45.6338 10.5098L47.3658 11.5098L44.6158 16.2729C44.4778 16.5121 44.172 16.594 43.9328 16.4559L43.0668 15.9559C42.8277 15.8178 42.7457 15.5121 42.8838 15.2729L44.1338 13.1078L45.6338 10.5098Z" fill="#FAFAFA"/>
<path d="M33.3838 31.727C33.5219 31.4878 33.8277 31.4059 34.0668 31.5439L34.9328 32.0439C35.172 32.182 35.2539 32.4878 35.1158 32.727L32.3658 37.4901L30.6338 36.4901L32.1338 33.892L33.3838 31.727Z" fill="#FAFAFA"/>
<path d="M16 14L31.6213 17.9053C31.8439 17.961 32 18.161 32 18.3904V29.6096C32 29.839 31.8439 30.039 31.6213 30.0947L16 34V14Z" fill="#07012E"/>
<path d="M16 23H32V25H16V23Z" fill="#FAFAFA"/>
<path d="M16 17L32 19V21L16 19V17Z" fill="#FAFAFA"/>
<path d="M16 31L32 29V27L16 29V31Z" fill="#FAFAFA"/>
</svg>
