<svg width="68" height="48" viewBox="0 0 68 48" fill="none" xmlns="http://www.w3.org/2000/svg">
<path fill-rule="evenodd" clip-rule="evenodd" d="M34 41C36.2091 41 38 39.2091 38 37C38 34.7909 36.2091 33 34 33C31.7909 33 30 34.7909 30 37C30 39.2091 31.7909 41 34 41ZM34 38C34.5523 38 35 37.5523 35 37C35 36.4477 34.5523 36 34 36C33.4477 36 33 36.4477 33 37C33 37.5523 33.4477 38 34 38Z" fill="#07012E"/>
<path fill-rule="evenodd" clip-rule="evenodd" d="M41.8677 19.3733C42.9723 21.2865 45.4186 21.942 47.3318 20.8374C49.245 19.7328 49.9005 17.2865 48.7959 15.3733C47.6913 13.4601 45.245 12.8046 43.3318 13.9092C41.4186 15.0137 40.7631 17.4601 41.8677 19.3733ZM44.4658 17.8733C44.7419 18.3516 45.3535 18.5154 45.8318 18.2393C46.3101 17.9632 46.474 17.3516 46.1978 16.8733C45.9217 16.395 45.3101 16.2311 44.8318 16.5073C44.3535 16.7834 44.1896 17.395 44.4658 17.8733Z" fill="#07012E"/>
<path fill-rule="evenodd" clip-rule="evenodd" d="M26.1323 19.3728C27.2369 17.4596 26.5814 15.0133 24.6682 13.9087C22.755 12.8041 20.3087 13.4596 19.2041 15.3728C18.0995 17.286 18.755 19.7323 20.6682 20.8369C22.5814 21.9415 25.0277 21.286 26.1323 19.3728ZM23.5342 17.8728C23.8104 17.3945 23.6465 16.7829 23.1682 16.5068C22.6899 16.2306 22.0783 16.3945 21.8022 16.8728C21.526 17.3511 21.6899 17.9627 22.1682 18.2388C22.6465 18.515 23.2581 18.3511 23.5342 17.8728Z" fill="#07012E"/>
<path fill-rule="evenodd" clip-rule="evenodd" d="M34 45.16C45.6863 45.16 55.16 35.6863 55.16 24C55.16 12.3137 45.6863 2.84 34 2.84C22.3137 2.84 12.84 12.3137 12.84 24C12.84 35.6863 22.3137 45.16 34 45.16ZM34 47C46.7025 47 57 36.7025 57 24C57 11.2975 46.7025 1 34 1C21.2975 1 11 11.2975 11 24C11 36.7025 21.2975 47 34 47Z" fill="#07012E"/>
<path d="M35.5009 27.7074C33.4531 28.5362 31.1212 27.5482 30.2923 25.5004C29.4634 23.4527 30.4515 21.1207 32.4993 20.2918C34.547 19.463 36.879 20.451 37.7078 22.4988C38.5367 24.5465 37.5486 26.8785 35.5009 27.7074Z" fill="#FAFAFA"/>
<path fill-rule="evenodd" clip-rule="evenodd" d="M33.4902 16.6523L32.4616 15.0945L30.881 15.518L30.7691 17.3813C30.4599 17.5319 30.1646 17.7026 29.8844 17.8914L28.2162 17.0572L27.0591 18.2143L27.894 19.8842C27.7038 20.1667 27.5332 20.4621 27.3836 20.7681L25.5187 20.88L25.0952 22.4606L26.6525 23.4889C26.6291 23.8259 26.6289 24.167 26.6531 24.5101L25.0951 25.5388L25.5187 27.1194L27.3822 27.2312C27.5328 27.5404 27.7035 27.8357 27.8922 28.1158L27.0575 29.7852L28.2146 30.9423L29.8859 30.1066C30.1682 30.2967 30.4635 30.4672 30.7693 30.6167L30.8812 32.4811L32.4618 32.9046L33.4898 31.3476C33.8269 31.371 34.1681 31.3712 34.5112 31.3469L35.5397 32.9047L37.1203 32.4812L37.2322 30.6177C37.5415 30.4671 37.8369 30.2963 38.1172 30.1074L39.7869 30.9423L40.944 29.7852L40.108 28.1133C40.2977 27.8314 40.4679 27.5366 40.6171 27.2313L42.4816 27.1194L42.9051 25.5388L41.3483 24.5109C41.3717 24.1737 41.3719 23.8324 41.3477 23.4892L42.9055 22.4606L42.482 20.88L40.6186 20.7681C40.4679 20.4587 40.2971 20.1632 40.1082 19.8829L40.9424 18.2144L39.7853 17.0573L38.1148 17.8926C37.8327 17.7027 37.5378 17.5324 37.2324 17.3831L37.1204 15.518L35.5398 15.0945L34.5116 16.6518C34.1745 16.6283 33.8333 16.6281 33.4902 16.6523Z" fill="#BE054B"/>
<path fill-rule="evenodd" clip-rule="evenodd" d="M31.652 43.8652C32.1615 43.925 32.6759 43.9654 33.1944 43.9857C33.7289 44.0066 34.2676 44.0061 34.8098 43.9835C35.3203 43.9622 35.8338 43.9213 36.3494 43.8602C36.4364 43.8499 36.5234 43.839 36.6105 43.8275C36.6976 43.8161 36.7844 43.8041 36.8711 43.7915C37.385 43.7171 37.8916 43.6237 38.3903 43.5121C38.9197 43.3937 39.4401 43.2547 39.9509 43.0962C40.4465 42.9424 40.9329 42.7703 41.4096 42.5806C41.5743 42.515 41.7379 42.4474 41.9003 42.3777C42.3762 42.1734 42.8417 41.9516 43.2963 41.7129C43.7745 41.4619 44.2406 41.1924 44.6937 40.9054C45.1301 40.6289 45.5545 40.3363 45.9662 40.0284C46.1076 39.9226 46.2476 39.815 46.386 39.7056C46.7913 39.3854 47.1834 39.0501 47.5616 38.7006C47.9576 38.3347 48.3383 37.9534 48.7028 37.5576C49.0521 37.1785 49.3865 36.7862 49.7054 36.3817C49.814 36.2439 49.9208 36.1047 50.0258 35.9642C50.334 35.5515 50.6264 35.1269 50.9022 34.6914C51.1902 34.2367 51.4601 33.7701 51.7112 33.2927C51.9508 32.8369 52.1732 32.3714 52.3776 31.897C52.4475 31.735 52.5152 31.5719 52.5808 31.4079C52.7716 30.9306 52.9444 30.4449 53.0985 29.9518C53.2583 29.44 53.398 28.9203 53.5167 28.3936C53.6295 27.8927 53.7234 27.3856 53.7975 26.8731C53.8228 26.6981 53.8458 26.5225 53.8665 26.3462C53.9264 25.8367 53.9667 25.3223 53.987 24.8038C54.0079 24.2695 54.0074 23.731 53.9848 23.1891C53.9636 22.6785 53.9227 22.165 53.8615 21.6494C53.8512 21.5623 53.8403 21.4753 53.8289 21.3881C53.8174 21.3011 53.8054 21.2143 53.7929 21.1276C53.7185 20.6138 53.6251 20.1072 53.5135 19.6085C53.395 19.079 53.256 18.5584 53.0974 18.0475C52.9437 17.5519 52.7715 17.0655 52.5818 16.5888C52.5162 16.424 52.4486 16.2604 52.3789 16.0979C52.1746 15.6221 51.9527 15.1565 51.7141 14.702C51.4631 14.2239 51.1936 13.7579 50.9067 13.3049C50.6302 12.8685 50.3376 12.4441 50.0297 12.0324C49.9239 11.891 49.8164 11.7511 49.707 11.6127C49.3868 11.2074 49.0514 10.8153 48.702 10.4371C48.336 10.041 47.9545 9.66016 47.5586 9.2955C47.1795 8.94626 46.7872 8.61183 46.3827 8.29296C46.245 8.18439 46.1058 8.07763 45.9653 7.97269C45.5526 7.6645 45.128 7.37213 44.6925 7.09632C44.238 6.80842 43.7715 6.53857 43.2944 6.28763C42.8386 6.04796 42.3731 5.82554 41.8987 5.62112C41.7367 5.55131 41.5737 5.4836 41.4096 5.41801C40.9323 5.22717 40.4467 5.05435 39.9535 4.90028C39.4415 4.74032 38.9215 4.60057 38.3946 4.48186C37.8937 4.36903 37.3866 4.2752 36.8741 4.20108C36.6992 4.17577 36.5236 4.15277 36.3475 4.13208C35.838 4.07226 35.3235 4.03187 34.8051 4.0116C34.2707 3.99072 33.7321 3.9912 33.1902 4.01378C32.6796 4.03506 32.1661 4.07596 31.6505 4.13709C31.5635 4.1474 31.4765 4.15829 31.3894 4.16975C31.3024 4.18121 31.2155 4.19322 31.1288 4.20577C30.6149 4.28018 30.1083 4.37358 29.6097 4.48516C29.0803 4.60363 28.5598 4.7426 28.049 4.90109C27.5535 5.05487 27.067 5.22703 26.5904 5.41669C26.4256 5.48225 26.262 5.5499 26.0996 5.6196C25.6238 5.82385 25.1582 6.04574 24.7037 6.28436C24.2254 6.5354 23.7593 6.80496 23.3062 7.09197C22.8698 7.36842 22.4454 7.66106 22.0337 7.96892C21.8923 8.07468 21.7524 8.18223 21.6141 8.29154C21.2088 8.61178 20.8166 8.9471 20.4385 9.29655C20.0423 9.66258 19.6615 10.0441 19.2968 10.44C18.9476 10.8191 18.6132 11.2114 18.2943 11.6159C18.1857 11.7536 18.079 11.8927 17.9741 12.0332C17.6659 12.4459 17.3735 12.8705 17.0977 13.306C16.8098 13.7605 16.54 14.2269 16.289 14.7041C16.0494 15.1598 15.827 15.6254 15.6225 16.0997C15.5527 16.2617 15.4851 16.4246 15.4195 16.5885C15.2287 17.0658 15.0558 17.5515 14.9018 18.0446C14.7417 18.5567 14.6019 19.0769 14.4832 19.6041C14.3703 20.1049 14.2765 20.612 14.2024 21.1245C14.1771 21.2993 14.1541 21.4747 14.1335 21.6507C14.0736 22.1602 14.0332 22.6747 14.0129 23.1931C13.992 23.7277 13.9925 24.2665 14.0151 24.8086C14.0364 25.3192 14.0773 25.8327 14.1384 26.3483C14.1487 26.4352 14.1596 26.5222 14.1711 26.6092C14.1825 26.6963 14.1946 26.7832 14.2071 26.8699C14.2815 27.3838 14.3749 27.8904 14.4865 28.3891C14.605 28.9183 14.7439 29.4386 14.9023 29.9493C15.0561 30.4449 15.2283 30.9313 15.4179 31.408C15.4835 31.5727 15.5511 31.7363 15.6208 31.8986C15.825 32.3745 16.0469 32.84 16.2855 33.2946C16.5366 33.773 16.8062 34.2392 17.0933 34.6924C17.3697 35.1288 17.6624 35.5532 17.9702 35.9649C18.076 36.1063 18.1836 36.2462 18.2929 36.3846C18.6132 36.7899 18.9485 37.182 19.2979 37.5602C19.6638 37.9562 20.0452 38.3369 20.441 38.7015C20.8201 39.0507 21.2124 39.3852 21.6169 39.7041C21.7547 39.8127 21.8938 39.9194 22.0344 40.0244C22.4471 40.3326 22.8716 40.625 23.3071 40.9008C23.7618 41.1888 24.2284 41.4587 24.7057 41.7098C25.1615 41.9494 25.627 42.1718 26.1014 42.3762C26.2633 42.446 26.4263 42.5137 26.5903 42.5793C27.0675 42.7701 27.5532 42.9429 28.0464 43.097C28.5583 43.2569 29.0782 43.3967 29.6051 43.5154C30.1059 43.6282 30.613 43.722 31.1255 43.7962C31.3004 43.8215 31.4759 43.8445 31.652 43.8652ZM33.2571 42.3866C33.7488 42.4059 34.2445 42.4055 34.7433 42.3848L35.2275 40.9837L37.2104 40.7227L38.0407 41.9507C38.5277 41.8416 39.0066 41.7137 39.4765 41.5679L39.5817 40.0873L41.4295 39.3219L42.5524 40.2959C42.9922 40.065 43.4208 39.8172 43.8374 39.5533L43.5555 38.0943L45.1422 36.8768L46.4758 37.5253C46.8402 37.1886 47.1905 36.8377 47.5261 36.4735L46.878 35.141L48.0955 33.5542L49.5504 33.8353C49.8155 33.4168 50.0639 32.9874 50.2949 32.548L49.3232 31.4277L50.0886 29.58L51.5709 29.4746C51.7179 29.0041 51.8463 28.5261 51.9554 28.0418L50.7237 27.209L50.9847 25.2261L52.388 24.7411C52.4072 24.2496 52.4069 23.7541 52.3861 23.2555L50.985 22.7713L50.724 20.7884L51.952 19.9581C51.843 19.4709 51.715 18.9919 51.5691 18.5219L50.0884 18.4166L49.323 16.5689L50.297 15.4458C50.0662 15.0062 49.8184 14.5777 49.5546 14.1612L48.0957 14.4431L46.8782 12.8564L47.5267 11.5229C47.1899 11.1584 46.8388 10.8079 46.4745 10.4723L45.1421 11.1203L43.5554 9.90273L43.8365 8.44808C43.4181 8.18315 42.9889 7.93483 42.5497 7.70392L41.4295 8.6755L39.5817 7.91014L39.4763 6.42787C39.0056 6.28081 38.5274 6.15232 38.0428 6.04317L37.2102 7.27467L35.2273 7.01361L34.7424 5.61064C34.2508 5.59137 33.7553 5.59177 33.2567 5.6125L32.7725 7.01356L30.7896 7.27461L29.9593 6.04661C29.4722 6.15565 28.9934 6.28355 28.5235 6.42941L28.4182 7.91001L26.5705 8.67538L25.4475 7.70143C25.0077 7.93226 24.5792 8.18012 24.1625 8.444L24.4443 9.90276L22.8576 11.1203L21.5243 10.4719C21.1597 10.8087 20.8092 11.1598 20.4736 11.5241L21.1215 12.8564L19.904 14.4431L18.4495 14.162C18.1845 14.5804 17.9362 15.0096 17.7053 15.4488L18.6767 16.5687L17.9113 18.4165L16.4293 18.5218C16.2822 18.9927 16.1537 19.4711 16.0445 19.9558L17.2756 20.7882L17.0145 22.7711L15.612 23.2558C15.5927 23.7476 15.5931 24.2433 15.6138 24.7421L17.0149 25.2263L17.2759 27.2092L16.048 28.0395C16.157 28.5264 16.2848 29.0051 16.4307 29.4749L17.9111 29.5801L18.6765 31.4279L17.7026 32.5508C17.9335 32.9906 18.1814 33.4193 18.4453 33.8361L19.9042 33.5542L21.1217 35.1409L20.4732 36.4744C20.81 36.8388 21.1609 37.1892 21.5251 37.5247L22.8575 36.8767L24.4443 38.0943L24.1632 39.549C24.5817 39.8141 25.0111 40.0625 25.4504 40.2935L26.5705 39.322L28.4182 40.0874L28.5235 41.5694C28.9942 41.7164 29.4723 41.8449 29.9568 41.9541L30.7894 40.7227L32.7723 40.9838L33.2571 42.3866Z" fill="#07012E"/>
<path d="M38 24C38 26.2091 36.2091 28 34 28C31.7909 28 30 26.2091 30 24C30 21.7909 31.7909 20 34 20C36.2091 20 38 21.7909 38 24Z" fill="#FAFAFA"/>
</svg>
