<svg width="68" height="48" viewBox="0 0 68 48" fill="none" xmlns="http://www.w3.org/2000/svg">
<path fill-rule="evenodd" clip-rule="evenodd" d="M41.1908 24.5859L44.1222 23.936L46.1993 28.0954C46.8427 28.2039 47.4627 28.4016 48.043 28.678L52.133 26.4621L54.1616 28.6758L51.5969 32.556C51.7078 32.855 51.7996 33.1652 51.8705 33.4854C51.9414 33.8053 51.9891 34.125 52.0149 34.4427L55.9799 36.8759L55.077 39.7396L50.4319 39.4597C50.0231 39.955 49.5452 40.3959 49.0086 40.766L48.8839 45.4146L45.9524 46.0644L43.8743 41.9056C43.2305 41.7971 42.61 41.5993 42.0293 41.3227L37.9415 43.5388L35.9129 41.325L38.4761 37.445C38.3651 37.146 38.2733 36.8358 38.2024 36.5155C38.1314 36.1953 38.0837 35.8753 38.0579 35.5573L34.0952 33.1241L34.9981 30.2604L39.6408 30.5414C40.0497 30.0458 40.5279 29.6047 41.0649 29.2345L41.1908 24.5859Z" fill="#07012E"/>
<path d="M48.0395 34.9905C48.0395 36.642 46.6954 37.9809 45.0373 37.9809C43.3793 37.9809 42.0352 36.642 42.0352 34.9905C42.0352 33.3389 43.3793 32 45.0373 32C46.6954 32 48.0395 33.3389 48.0395 34.9905Z" fill="#FAFAFA"/>
<path fill-rule="evenodd" clip-rule="evenodd" d="M26.0948 0L30.6386 0L31.7897 4.6047C32.8368 4.9251 33.8261 5.37441 34.7397 5.93353L38.6702 3.57476L41.8831 6.78767L39.4165 10.8987C39.9122 11.8294 40.2974 12.8274 40.5547 13.8748L45.0348 14.9944L45.0348 19.5382L40.3783 20.7023C40.0744 21.7113 39.6509 22.6672 39.1248 23.5539L41.3988 27.7729L38.0414 30.8344L34.2248 28.298C33.2859 28.8148 32.2763 29.2182 31.2149 29.4901L29.8535 34.0349L25.3146 33.8257L24.421 29.3906C23.3443 29.0812 22.3265 28.636 21.3868 28.0755L17.2617 30.2989L14.2002 26.9415L16.6797 23.2105C16.1425 22.2386 15.7269 21.1906 15.4532 20.0876L11 18.7537L11.2092 14.2148L15.5924 13.3316C15.9175 12.2191 16.3877 11.1702 16.9804 10.206L14.675 6.36445L17.8879 3.15154L21.9078 5.56345C22.8718 5.04731 23.9084 4.64991 24.9976 4.39056L26.0948 0ZM27.6565 2L26.6305 6.10541L25.9983 6.22249C24.7087 6.46131 23.4965 6.92746 22.4056 7.57914L21.8917 7.88618L18.198 5.66994L17.1935 6.67439L19.347 10.263L18.9836 10.7926C18.2399 11.8764 17.6865 13.1014 17.372 14.4209L17.2237 15.043L13.1352 15.8669L13.0698 17.2859L17.1651 18.5126L17.2822 19.1033C17.5401 20.404 18.0298 21.6238 18.7079 22.717L19.0463 23.2628L16.7303 26.7478L17.6874 27.7975L21.4779 25.7544L21.9773 26.0849C23.0373 26.7867 24.2273 27.3086 25.5051 27.6068L26.1312 27.7529L26.9668 31.8997L28.3857 31.9651L29.6368 27.7884L30.2213 27.6677C31.4837 27.4069 32.6687 26.9275 33.7339 26.2695L34.2791 25.9327L37.8478 28.3044L38.8974 27.3472L36.8052 23.4657L37.1336 22.9669C37.797 21.9596 38.2981 20.8355 38.5996 19.6308L38.7453 19.049L43.0348 17.9766V16.5561L38.8499 15.5102L38.7291 14.8841C38.4876 13.633 38.0319 12.4559 37.4004 11.3933L37.0954 10.88L39.3647 7.0977L38.3603 6.09325L34.6851 8.29878L34.1559 7.93723C33.1226 7.23122 31.9616 6.69797 30.7131 6.37935L30.1349 6.2318L29.077 2H27.6565Z" fill="#BE054B"/>
<path fill-rule="evenodd" clip-rule="evenodd" d="M28.0352 23C31.3489 23 34.0352 20.3137 34.0352 17C34.0352 13.6863 31.3489 11 28.0352 11C24.7214 11 22.0352 13.6863 22.0352 17C22.0352 20.3137 24.7214 23 28.0352 23ZM28.0352 25C32.4534 25 36.0352 21.4183 36.0352 17C36.0352 12.5817 32.4534 9 28.0352 9C23.6169 9 20.0352 12.5817 20.0352 17C20.0352 21.4183 23.6169 25 28.0352 25Z" fill="#BE054B"/>
</svg>
