<svg width="68" height="48" viewBox="0 0 68 48" fill="none" xmlns="http://www.w3.org/2000/svg">
<path fill-rule="evenodd" clip-rule="evenodd" d="M4 18V42H24V18H4ZM3 16C2.44772 16 2 16.4477 2 17V43C2 43.5523 2.44772 44 3 44H25C25.5523 44 26 43.5523 26 43V17C26 16.4477 25.5523 16 25 16H3Z" fill="#07012E"/>
<path fill-rule="evenodd" clip-rule="evenodd" d="M26 11V35H28V11H26ZM25 9C24.4477 9 24 9.44771 24 10V36C24 36.5523 24.4477 37 25 37H29C29.5523 37 30 36.5523 30 36V10C30 9.44772 29.5523 9 29 9H25Z" fill="#07012E"/>
<path fill-rule="evenodd" clip-rule="evenodd" d="M29 13C28.4477 13 28 13.4477 28 14V32C28 32.5523 28.4477 33 29 33H31C31.5523 33 32 32.5523 32 32V14C32 13.4477 31.5523 13 31 13H29Z" fill="#07012E"/>
<path fill-rule="evenodd" clip-rule="evenodd" d="M33 7V34H64V7H33ZM32 5C31.4477 5 31 5.44772 31 6V35C31 35.5523 31.4477 36 32 36H65C65.5523 36 66 35.5523 66 35V6C66 5.44772 65.5523 5 65 5H32Z" fill="#07012E"/>
<path fill-rule="evenodd" clip-rule="evenodd" d="M62 7V34H64V7H62ZM61 5C60.4477 5 60 5.44772 60 6V35C60 35.5523 60.4477 36 61 36H65C65.5523 36 66 35.5523 66 35V6C66 5.44772 65.5523 5 65 5H61Z" fill="#07012E"/>
<path fill-rule="evenodd" clip-rule="evenodd" d="M14 27C11.2386 27 9 29.2386 9 32C9 34.7614 11.2386 37 14 37C16.7614 37 19 34.7614 19 32C19 29.2386 16.7614 27 14 27ZM7 32C7 28.134 10.134 25 14 25C17.866 25 21 28.134 21 32C21 35.866 17.866 39 14 39C10.134 39 7 35.866 7 32Z" fill="#BE054B"/>
<path d="M17 32C17 33.6569 15.6569 35 14 35C12.3431 35 11 33.6569 11 32C11 30.3431 12.3431 29 14 29C15.6569 29 17 30.3431 17 32Z" fill="#FAFAFA"/>
<path fill-rule="evenodd" clip-rule="evenodd" d="M14 30C12.8954 30 12 30.8954 12 32C12 33.1046 12.8954 34 14 34C15.1046 34 16 33.1046 16 32C16 30.8954 15.1046 30 14 30ZM10 32C10 29.7909 11.7909 28 14 28C16.2091 28 18 29.7909 18 32C18 34.2091 16.2091 36 14 36C11.7909 36 10 34.2091 10 32Z" fill="#BE054B"/>
<path fill-rule="evenodd" clip-rule="evenodd" d="M12.6532 24.4162C12.6695 24.3257 12.6989 24.2351 12.7427 24.1466L13.0348 23.5564C13.402 22.8145 14.4601 22.8145 14.8273 23.5564L15.1194 24.1466C15.1633 24.2353 15.1927 24.3262 15.209 24.4169C16.3593 24.6136 17.4217 25.0711 18.3348 25.727C18.4124 25.6716 18.5001 25.6262 18.5973 25.5935L19.2189 25.3842C19.9966 25.1223 20.7366 25.8698 20.4773 26.6555L20.2701 27.2834C20.2377 27.3817 20.1927 27.4704 20.1378 27.5489C20.7878 28.4731 21.2407 29.5486 21.4346 30.7129C21.5314 30.7292 21.6284 30.7604 21.723 30.8081L22.3106 31.105C23.0428 31.4748 23.0428 32.5203 22.3106 32.8901L21.723 33.187C21.6284 33.2347 21.5314 33.2659 21.4346 33.2822C21.2408 34.4463 20.788 35.5216 20.1382 36.4456C20.1933 36.5243 20.2385 36.6132 20.271 36.7117L20.4782 37.3396C20.7375 38.1254 19.9975 38.8729 19.2198 38.611L18.5982 38.4016C18.5009 38.3689 18.413 38.3234 18.3353 38.2679C17.4221 38.9239 16.3595 39.3815 15.209 39.5783C15.1928 39.6691 15.1633 39.7599 15.1194 39.8487L14.8273 40.4389C14.4601 41.1808 13.402 41.1808 13.0348 40.4389L12.7427 39.8487C12.6989 39.7602 12.6695 39.6695 12.6532 39.579C11.502 39.3827 10.4386 38.9254 9.52476 38.2693C9.44733 38.3244 9.35991 38.3696 9.26315 38.4022L8.64154 38.6115C7.86376 38.8734 7.12381 38.1259 7.38307 37.3402L7.59027 36.7122C7.62249 36.6146 7.66718 36.5264 7.72165 36.4482C7.07082 35.5235 6.61738 34.4472 6.42342 33.2819C6.32717 33.2655 6.23077 33.2344 6.13678 33.187L5.54915 32.8901C4.81695 32.5203 4.81695 31.4748 5.54915 31.105L6.13678 30.8081C6.23078 30.7607 6.32718 30.7295 6.42343 30.7132C6.61742 29.5479 7.07091 28.4715 7.72181 27.5468C7.66756 27.4688 7.62305 27.3808 7.59092 27.2834L7.38372 26.6555C7.12446 25.8697 7.86441 25.1222 8.64219 25.3841L9.2638 25.5935C9.36029 25.626 9.44749 25.671 9.52476 25.7259C10.4386 25.0698 11.502 24.6124 12.6532 24.4162ZM13.93 38.1935C17.3175 38.1935 20.0637 35.4194 20.0637 31.9973C20.0637 28.5752 17.3175 25.8011 13.93 25.8011C10.5425 25.8011 7.79639 28.5752 7.79639 31.9973C7.79639 35.4194 10.5425 38.1935 13.93 38.1935Z" fill="#BE054B"/>
</svg>
