<svg width="68" height="48" viewBox="0 0 68 48" fill="none" xmlns="http://www.w3.org/2000/svg">
<g clip-path="url(#clip0_881_5056)">
<path fill-rule="evenodd" clip-rule="evenodd" d="M14.5528 16.8968L17.2666 18.2537C17.3977 19.0002 17.5928 19.7246 17.8461 20.4211L16.1746 22.9527C15.7205 23.6403 16.2464 24.5512 17.069 24.5018L20.1015 24.3198C20.5826 24.8918 21.1124 25.4215 21.6844 25.9025L21.5024 28.9351C21.453 29.7576 22.3639 30.2835 23.0516 29.8295L25.584 28.1574C26.2797 28.4102 27.0033 28.605 27.7488 28.7359L29.1069 31.4521C29.4754 32.1891 30.5272 32.1891 30.8958 31.4521L32.2541 28.7354C33.0004 28.6042 33.7247 28.409 34.421 28.1556L36.9559 29.8293C37.6435 30.2833 38.5544 29.7574 38.5051 28.9349L38.3227 25.8967C38.8921 25.4172 39.4196 24.8895 39.8987 24.3199L42.9312 24.5019C43.7537 24.5512 44.2796 23.6403 43.8256 22.9527L42.1541 20.4212C42.4072 19.7251 42.6023 19.0012 42.7333 18.2553L45.4503 16.8968C46.1874 16.5283 46.1874 15.4765 45.4503 15.108L42.7333 13.7495C42.6025 13.0047 42.4078 12.2818 42.1553 11.5868L43.8288 9.05221C44.2828 8.36454 43.7569 7.45365 42.9343 7.50302L39.8989 7.68521C39.4185 7.11397 38.8894 6.58491 38.3183 6.10438L38.5004 3.06994C38.5498 2.24737 37.6389 1.72147 36.9512 2.17551L34.418 3.84807C33.7226 3.59523 32.9993 3.40038 32.254 3.26936L30.8958 0.552787C30.5272 -0.184262 29.4754 -0.184262 29.1069 0.552786L27.7488 3.2689C27.0037 3.39973 26.2806 3.59437 25.5852 3.84698L23.0537 2.17549C22.366 1.72145 21.4551 2.24735 21.5045 3.06992L21.6864 6.10068C21.1135 6.58219 20.583 7.11251 20.1013 7.68524L17.0658 7.50304C16.2432 7.45367 15.7173 8.36456 16.1714 9.05223L17.8449 11.5869C17.5922 12.2824 17.3975 13.0057 17.2666 13.751L14.5528 15.108C13.8157 15.4765 13.8157 16.5283 14.5528 16.8968Z" fill="#BE054B"/>
<path fill-rule="evenodd" clip-rule="evenodd" d="M52.0444 35H11.9556V42H52.0444V35ZM10 33V44H54V33H10Z" fill="#07012E"/>
<path d="M37 16C37 19.866 33.866 23 30 23C26.134 23 23 19.866 23 16C23 12.134 26.134 9 30 9C33.866 9 37 12.134 37 16Z" fill="#FAFAFA"/>
<path d="M31 33L36 35L33.8944 30.7889C33.5259 30.0518 32.4741 30.0518 32.1056 30.7889L31 33Z" fill="#07012E"/>
<path d="M40 44L35 42L37.1056 46.2111C37.4741 46.9482 38.5259 46.9482 38.8944 46.2111L40 44Z" fill="#07012E"/>
<path d="M31 33L36 35L40 44L35 42L31 33Z" fill="#07012E"/>
<path d="M24 33L29 35L26.8944 30.7889C26.5259 30.0518 25.4741 30.0518 25.1056 30.7889L24 33Z" fill="#07012E"/>
<path d="M33 44L28 42L30.1056 46.2111C30.4741 46.9482 31.5259 46.9482 31.8944 46.2111L33 44Z" fill="#07012E"/>
<path d="M24 33L29 35L33 44L28 42L24 33Z" fill="#07012E"/>
<path d="M17 33L22 35L19.8944 30.7889C19.5259 30.0518 18.4741 30.0518 18.1056 30.7889L17 33Z" fill="#07012E"/>
<path d="M26 44L21 42L23.1056 46.2111C23.4741 46.9482 24.5259 46.9482 24.8944 46.2111L26 44Z" fill="#07012E"/>
<path d="M17 33L22 35L26 44L21 42L17 33Z" fill="#07012E"/>
<path d="M10 33L15 35L12.8944 30.7889C12.5259 30.0518 11.4741 30.0518 11.1056 30.7889L10 33Z" fill="#07012E"/>
<path d="M19 44L14 42L16.1056 46.2111C16.4741 46.9482 17.5259 46.9482 17.8944 46.2111L19 44Z" fill="#07012E"/>
<path d="M10 33L15 35L19 44L14 42L10 33Z" fill="#07012E"/>
<path d="M38 33L43 35L40.8944 30.7889C40.5259 30.0518 39.4741 30.0518 39.1056 30.7889L38 33Z" fill="#07012E"/>
<path d="M47 44L42 42L44.1056 46.2111C44.4741 46.9482 45.5259 46.9482 45.8944 46.2111L47 44Z" fill="#07012E"/>
<path d="M38 33L43 35L47 44L42 42L38 33Z" fill="#07012E"/>
<path d="M45 33L50 35L47.8944 30.7889C47.5259 30.0518 46.4741 30.0518 46.1056 30.7889L45 33Z" fill="#07012E"/>
<path d="M54 44L49 42L51.1056 46.2111C51.4741 46.9482 52.5259 46.9482 52.8944 46.2111L54 44Z" fill="#07012E"/>
<path d="M45 33L50 35L54 44L49 42L45 33Z" fill="#07012E"/>
</g>
<defs>
<clipPath id="clip0_881_5056">
<rect width="68" height="48" fill="white"/>
</clipPath>
</defs>
</svg>
