<svg width="44" height="44" viewBox="0 0 44 44" fill="none" xmlns="http://www.w3.org/2000/svg">
<path d="M44 22C44 34.1503 34.1503 44 22 44C9.84974 44 0 34.1503 0 22C0 9.84974 9.84974 0 22 0C34.1503 0 44 9.84974 44 22Z" fill="#FAFAFA"/>
<path fill-rule="evenodd" clip-rule="evenodd" d="M22 43C33.598 43 43 33.598 43 22C43 10.402 33.598 1 22 1C10.402 1 1 10.402 1 22C1 33.598 10.402 43 22 43ZM22 44C34.1503 44 44 34.1503 44 22C44 9.84974 34.1503 0 22 0C9.84974 0 0 9.84974 0 22C0 34.1503 9.84974 44 22 44Z" fill="#07012E"/>
<path d="M22.7871 14.8862L10.2143 26.7144L9.42853 25.9752L22.0013 14.147L22.7871 14.8862Z" fill="#07012E"/>
<path d="M33.7861 26.7104L21.2134 14.8823L21.9991 14.143L34.5719 25.9712L33.7861 26.7104Z" fill="#07012E"/>
</svg>
